<?xml version="1.0" encoding="utf-8"?>
<!-- Generator: Adobe Illustrator 26.0.1, SVG Export Plug-In . SVG Version: 6.00 Build 0)  -->
<svg version="1.1" id="Layer_1" xmlns="http://www.w3.org/2000/svg" xmlns:xlink="http://www.w3.org/1999/xlink" x="0px" y="0px"
	 viewBox="0 0 122.9 122.9" style="enable-background:new 0 0 122.9 122.9;" xml:space="preserve">
<style type="text/css">
	.st0{fill-rule:evenodd;clip-rule:evenodd;fill:#FFC83D;}
</style>
<g>
	<g>
		<path class="st0" d="M28.7,122.9h11v-13.4h-11V122.9L28.7,122.9z M22.7,19.5h74.8c2.6,0,4.7,2.1,4.7,4.7v75c0,2.6-2.1,4.7-4.7,4.7
			H22.7c-2.6,0-4.7-2.1-4.7-4.7v-75C18,21.6,20.1,19.5,22.7,19.5L22.7,19.5L22.7,19.5z M42.3,41.3h35.4c1.6,0,2.8,1.3,2.8,2.8v35.1
			c0,1.6-1.3,2.8-2.8,2.8H42.3c-1.5,0-2.8-1.3-2.8-2.8V44.1C39.5,42.6,40.8,41.3,42.3,41.3L42.3,41.3z M122.9,65.6v9.2h-13.4v-9.2
			H122.9L122.9,65.6z M122.9,48.1v9.2h-13.4v-9.2H122.9L122.9,48.1L122.9,48.1z M122.9,83.2v11h-13.4v-11H122.9L122.9,83.2z
			 M122.9,28.7v11h-13.4v-11H122.9L122.9,28.7z M0,65.6v9.2h13.4v-9.2H0L0,65.6z M0,48.1v9.2h13.4v-9.2H0L0,48.1z M0,83.2v11h13.4
			v-11H0L0,83.2z M0,28.7v11h13.4v-11H0L0,28.7z M65.6,0h9.2v13.4h-9.2V0L65.6,0L65.6,0z M48.1,0h9.2v13.4h-9.2V0L48.1,0L48.1,0z
			 M83.2,0h11v13.4h-11V0L83.2,0L83.2,0z M28.7,0h11v13.4h-11V0L28.7,0L28.7,0z M65.6,122.9h9.2v-13.4h-9.2V122.9L65.6,122.9z
			 M48.1,122.9h9.2v-13.4h-9.2V122.9L48.1,122.9z M83.2,122.9h11v-13.4h-11V122.9L83.2,122.9z"/>
	</g>
</g>
</svg>
