<?xml version="1.0" encoding="utf-8"?>
<!-- Generator: Adobe Illustrator 26.0.1, SVG Export Plug-In . SVG Version: 6.00 Build 0)  -->
<svg version="1.1" id="Layer_1" xmlns="http://www.w3.org/2000/svg" xmlns:xlink="http://www.w3.org/1999/xlink" x="0px" y="0px"
	 viewBox="0 0 122 122.9" style="enable-background:new 0 0 122 122.9;" xml:space="preserve">
<style type="text/css">
	.st0{fill-rule:evenodd;clip-rule:evenodd;fill:#EA3939;}
</style>
<g>
	<path class="st0" d="M4.7,9.3v39.3H44h4.6l-3.3-3.3L33.9,33.8c0.8-0.7,1.5-1.4,2.4-2.1c1.1-0.9,2.2-1.7,3.4-2.5l0,0
		c6-3.9,13.2-6.2,20.9-6.2h0v0c10.6,0,20.2,4.3,27.1,11.2S99,50.8,99,61.4h0v0h0c0,10.6-4.3,20.2-11.2,27.1
		c-6.9,6.9-16.5,11.2-27.1,11.2v0h-0.1v0c-3.7,0-7.4-0.5-10.9-1.6l0,0c-2-0.6-3.9-1.3-5.7-2.2C34.5,91.4,27.2,83.2,24,73.1l-0.4-1.3
		L0,71.8l0.5,2.3l0,0.1v0c0.8,3.8,2,7.6,3.5,11.2v0c1.5,3.6,3.4,7,5.5,10.2c11,16.4,29.8,27.2,51,27.2h0v0c17,0,32.3-6.9,43.4-18v0
		c11.1-11.1,18-26.5,18-43.4h0v0h0c0-17-6.9-32.3-18-43.4l0,0C92.9,6.9,77.6,0,60.6,0v0h-0.1v0c-8.7,0-17,1.8-24.5,5.1
		c-1.2,0.5-2.4,1.1-3.6,1.7C27,9.6,22,13.3,17.6,17.6L8,7.9L4.7,4.7V9.3L4.7,9.3L4.7,9.3z"/>
</g>
</svg>
